<svg xmlns="http://www.w3.org/2000/svg" viewBox="0 0 873.04 276.46"><defs><style>.cls-1{fill:#28a745;}</style></defs><g id="Layer_2" data-name="Layer 2"><g id="Layer_1-2" data-name="Layer 1"><path d="M167.63,75H116.14V94.52Q94.92,72.88,67.76,72.88c-18.11,0-33.69,6.67-47.32,20S0,123.76,0,145.45q0,29.7,18.53,50.08t48,20.37a62.36,62.36,0,0,0,29.71-7.21q13.58-7.22,20-15.28v12.45q0,13.57-1.41,19.31a33.51,33.51,0,0,1-6.3,12.1q-4.87,6.36-14.78,10.82a51.8,51.8,0,0,1-21.5,4.46q-20.94,0-38.76-13.86L15.86,258.21a86.37,86.37,0,0,0,54,18.25q20.09,0,36.36-7.07t24.4-17.47q8.13-10.39,10.26-20.37T143,200.92v-102h24.61V75ZM103.26,178.76A43.37,43.37,0,0,1,71.57,192c-12.26,0-22.85-4.39-30.91-13.16s-12.1-20.09-12.1-34S33,119.16,41.72,110.72s19-12.66,30.7-12.66,22,4.27,30.84,12.8,13.3,19.83,13.3,33.88-4.43,25.2-13.3,34Z"/><path class="cls-1" d="M298.91,91.19q-21.23-20-50.79-20c-19.72,0-37.11,6.77-51.07,20.3s-20.94,30.86-20.94,52q0,24.49,12.4,42.22L149,224.45l17,17,39.38-38.68q18.19,13.14,42.73,13.15,29.7,0,50.86-20.09t21.15-52.34q0-32.25-21.22-52.27Zm-19.73,85.29q-12.53,13.1-31.05,13.1a41.28,41.28,0,0,1-30.91-13q-12.66-13-12.66-33.23c0-13.52,4.1-24,12.31-32.88S235.49,97.2,248.13,97.2s22.35,4.34,30.84,13S291.7,130,291.7,143.39s-4.17,24.36-12.52,33.09Z"/><path d="M385.91,98.76h23.48V75H385.91V55.25q0-13.68,2.26-17.83t8.35-4.16q8.91,0,10.33,13.16l23.91-3.68q-5-31.54-36.07-31.55a36.26,36.26,0,0,0-25,9.53Q359,30.25,359,55.23V75h-20V98.76h20V188h-20v23.91h72.85V188h-26V98.76Z"/><path d="M461.73,44.72A15.77,15.77,0,0,0,473.19,40,15.6,15.6,0,0,0,478,28.45,15.37,15.37,0,0,0,473.19,17a15.91,15.91,0,0,0-11.46-4.67,15.46,15.46,0,0,0-11.67,4.81,15.83,15.83,0,0,0-4.6,11.32,15.92,15.92,0,0,0,4.74,11.46,15.56,15.56,0,0,0,11.53,4.81Z"/><polygon points="476.16 75 428.06 75 428.06 98.9 449.28 98.9 449.28 188.03 428.06 188.03 428.06 211.93 497.38 211.93 497.38 188.03 476.16 188.03 476.16 75"/><path d="M645.21,121.26q0-17.54-2.69-26.67T631.13,79.17q-8.7-6.28-22-6.3-21.36,0-47.25,18.67V75H511V98.9H535V188H511v23.91H585.5V188H561.88V114.74q22.5-17.4,40.32-17.4a15.45,15.45,0,0,1,11.46,4.74q4.67,4.74,4.67,20.3v89.55h49.94V188H645.21V121.25Z"/><path d="M873,199.37l-32-26.91V188H825V15.16H785V0L753,26.91l32,27V39.07h13.1V93.25q-20.65-22.06-48.38-22.07-26.18,0-47,19.52T682,144c0,22.54,6.74,39.75,20.23,51.92s29.14,18.25,47,18.25q28.86,0,48.95-22.35v20.09H841v14.41l32-27Zm-88.27-21.88q-13.37,12.81-30.63,12.8a43.52,43.52,0,0,1-30.63-12.17q-12.81-12.17-12.8-34.8,0-19.95,12.45-33.6a39.91,39.91,0,0,1,30.7-13.65q17,0,30.63,11.6t13.65,34.38c0,15.19-4.46,26.9-13.37,35.44Z"/></g></g></svg>