<?xml version="1.0" encoding="UTF-8"?>
<svg id="Layer_1" data-name="Layer 1" xmlns="http://www.w3.org/2000/svg" viewBox="0 0 1528 1130">
  <defs>
    <style>
      .cls-1 {
        fill: #222;
      }

      .cls-2 {
        fill: none;
      }
    </style>
  </defs>
  <path class="cls-2" d="m981.28,687.9c0-4.47-.1-8.85-.28-13.17v26.4c.18-4.35.28-8.75.28-13.23Z"/>
  <path class="cls-1" d="m1364.91,923.79l-137.84-115.91v67.06H509.06V130.32h-188.21v-65.31l-137.84,115.91,137.84,116.21v-63.83h72.43v233.38c-.09-.1-.19-.2-.28-.3v197.35c.18,4.32.28,8.7.28,13.17s-.1,8.89-.28,13.23v201.56c.09-.1.19-.2.28-.31v86.53h833.78v62.08l137.84-116.21Z"/>
</svg>