<?xml version="1.0" encoding="UTF-8"?>
<svg id="Layer_1" data-name="Layer 1" xmlns="http://www.w3.org/2000/svg" viewBox="0 0 1080 1080">
  <defs>
    <style>
      .cls-1 {
        fill: #28a745;
      }
    </style>
  </defs>
  <path class="cls-1" d="m286.6,449.56h-51.49v19.52c-14.15-14.43-30.27-21.64-48.38-21.64s-33.69,6.67-47.32,20.02c-13.63,13.35-20.44,30.86-20.44,52.55,0,19.8,6.18,36.5,18.53,50.08,12.35,13.58,28.34,20.37,47.96,20.37,10.75,0,20.65-2.4,29.71-7.21,9.05-4.81,15.7-9.9,19.95-15.28v12.45c0,9.05-.47,15.49-1.41,19.31-.94,3.82-3.04,7.85-6.3,12.1-3.25,4.24-8.18,7.85-14.78,10.82-6.6,2.97-13.77,4.46-21.5,4.46-13.96,0-26.88-4.62-38.76-13.86l-17.54,19.52c15.84,12.17,33.86,18.25,54.04,18.25,13.39,0,25.51-2.36,36.36-7.07,10.84-4.72,18.98-10.54,24.4-17.47,5.42-6.93,8.84-13.72,10.26-20.37,1.41-6.65,2.12-16.86,2.12-30.63v-101.99h24.61v-23.91Zm-64.37,103.76c-8.86,8.82-19.43,13.23-31.69,13.23s-22.85-4.39-30.91-13.16-12.1-20.09-12.1-33.95,4.39-25.72,13.16-34.16c8.77-8.44,19-12.66,30.7-12.66s21.97,4.27,30.84,12.8c8.86,8.54,13.3,19.83,13.3,33.88s-4.43,25.2-13.3,34.02Z"/>
  <path class="cls-1" d="m417.88,465.75c-14.15-13.34-31.07-20.02-50.79-20.02s-37.11,6.77-51.07,20.3c-13.96,13.53-20.94,30.86-20.94,51.99,0,16.33,4.15,30.4,12.4,42.22l-39.48,38.77,16.97,16.97,39.38-38.68c12.13,8.76,26.37,13.15,42.73,13.15,19.8,0,36.76-6.7,50.86-20.09,14.1-13.39,21.15-30.84,21.15-52.34s-7.07-38.92-21.22-52.27Zm-19.73,85.29c-8.35,8.73-18.7,13.1-31.05,13.1s-22.47-4.32-30.91-12.96c-8.44-8.64-12.66-19.71-12.66-33.23s4.1-24,12.31-32.88c8.2-8.87,18.62-13.31,31.26-13.31s22.35,4.34,30.84,13.03c8.49,8.69,12.73,19.74,12.73,33.16s-4.17,24.36-12.52,33.09Z"/>
  <path class="cls-1" d="m504.88,473.32h23.48v-23.77h-23.48v-19.74c0-9.12.75-15.06,2.26-17.83,1.51-2.77,4.29-4.16,8.35-4.16,5.94,0,9.38,4.39,10.33,13.16l23.91-3.68c-3.3-21.03-15.33-31.55-36.07-31.55-9.62,0-17.97,3.18-25.04,9.53-7.07,6.35-10.61,17.86-10.61,34.51v19.76h-19.95v23.77h19.95v89.26h-19.95v23.91h72.85v-23.91h-26.03v-89.26Z"/>
  <path class="cls-1" d="m580.7,419.28c4.43,0,8.25-1.58,11.46-4.74,3.2-3.16,4.81-7,4.81-11.53s-1.61-8.35-4.81-11.46c-3.21-3.11-7.03-4.67-11.46-4.67-4.72,0-8.61,1.61-11.67,4.81-3.07,3.21-4.6,6.98-4.6,11.32s1.58,8.25,4.74,11.46c3.16,3.21,7,4.81,11.53,4.81Z"/>
  <polygon class="cls-1" points="595.13 449.56 547.03 449.56 547.03 473.46 568.25 473.46 568.25 562.59 547.03 562.59 547.03 586.49 616.35 586.49 616.35 562.59 595.13 562.59 595.13 449.56"/>
  <path class="cls-1" d="m764.18,495.82c0-11.69-.9-20.58-2.69-26.67-1.79-6.08-5.59-11.22-11.39-15.42-5.8-4.19-13.14-6.3-22-6.3-14.24,0-29.99,6.22-47.25,18.67v-16.55h-50.93v23.91h24.05v89.12h-24.05v23.91h74.55v-23.91h-23.62v-73.28c15-11.6,28.43-17.4,40.32-17.4,4.53,0,8.35,1.58,11.46,4.74,3.11,3.16,4.67,9.93,4.67,20.3v89.55h49.94v-23.91h-23.06v-66.77Z"/>
  <path class="cls-1" d="m992,573.93l-32-26.91v15.57h-16.02v-172.87h-39.98v-15.16l-32,26.91,32,26.98v-14.82h13.1v54.18c-13.77-14.71-29.9-22.07-48.38-22.07-17.45,0-33.1,6.51-46.97,19.52-13.86,13.01-20.79,30.79-20.79,53.33s6.74,39.75,20.23,51.92c13.49,12.17,29.14,18.25,46.97,18.25,19.24,0,35.55-7.45,48.95-22.35v20.09h42.9v14.41l32-26.98Zm-88.27-21.88c-8.91,8.54-19.12,12.8-30.63,12.8s-22.09-4.05-30.63-12.17c-8.54-8.11-12.8-19.71-12.8-34.8,0-13.3,4.15-24.49,12.45-33.6,8.3-9.1,18.53-13.65,30.7-13.65,11.32,0,21.52,3.87,30.63,11.6,9.1,7.73,13.65,19.19,13.65,34.38s-4.46,26.9-13.37,35.44Z"/>
</svg>