<svg xmlns="http://www.w3.org/2000/svg" viewBox="0 0 171.09 170.25"><defs><style>.cls-1{fill:#ebede9;}</style></defs><g id="Layer_2" data-name="Layer 2"><g id="Layer_1-2" data-name="Layer 1"><path class="cls-1" d="M149.88,20Q128.65,0,99.09,0C79.37,0,62,6.77,48,20.3s-20.94,30.86-20.94,52q0,24.49,12.4,42.22L0,153.28l17,17,39.38-38.68q18.2,13.14,42.73,13.15,29.7,0,50.86-20.09t21.15-52.34Q171.09,40,149.87,20Zm-19.73,85.29q-12.53,13.1-31.05,13.1a41.28,41.28,0,0,1-30.91-13q-12.66-13-12.66-33.23c0-13.52,4.1-24,12.31-32.88S86.46,26,99.1,26s22.35,4.34,30.84,13,12.73,19.74,12.73,33.16-4.17,24.36-12.52,33.09Z"/></g></g></svg>