<?xml version="1.0" encoding="UTF-8"?>
<svg id="Layer_1" data-name="Layer 1" xmlns="http://www.w3.org/2000/svg" viewBox="0 0 238 233">
  <defs>
    <style>
      .cls-1 {
        fill: #28a745;
      }
    </style>
  </defs>
  <path class="cls-1" d="m185.69,49.17c-14.15-13.34-31.07-20.02-50.79-20.02s-37.11,6.77-51.07,20.3c-13.96,13.53-20.94,30.86-20.94,51.99,0,16.33,4.15,30.4,12.4,42.22l-39.48,38.77,16.97,16.97,39.38-38.68c12.13,8.76,26.37,13.15,42.73,13.15,19.8,0,36.76-6.7,50.86-20.09,14.1-13.39,21.15-30.84,21.15-52.34s-7.07-38.92-21.22-52.27Zm-19.73,85.29c-8.35,8.73-18.7,13.1-31.05,13.1s-22.47-4.32-30.91-12.96c-8.44-8.64-12.66-19.71-12.66-33.23s4.1-24,12.31-32.88c8.2-8.87,18.62-13.31,31.26-13.31s22.35,4.34,30.84,13.03c8.49,8.69,12.73,19.74,12.73,33.16s-4.17,24.36-12.52,33.09Z"/>
</svg>